<mxfile host="app.diagrams.net" modified="2021-03-29T07:55:25.094Z" agent="5.0 (X11)" etag="Bla3v59rc_RCjXiP6eNY" version="14.5.3" type="github">
  <diagram id="H3ckpyrtYbEDagCCd72o" name="Page-1">
    <mxGraphModel dx="1718" dy="959" grid="1" gridSize="10" guides="1" tooltips="1" connect="1" arrows="1" fold="1" page="1" pageScale="1" pageWidth="850" pageHeight="1100" math="0" shadow="0">
      <root>
        <mxCell id="0" />
        <mxCell id="1" parent="0" />
        <mxCell id="SCijopppJ_x_7-YpdCK1-111" value="" style="endArrow=none;html=1;" edge="1" parent="1">
          <mxGeometry width="50" height="50" relative="1" as="geometry">
            <mxPoint x="569.7100000000003" y="710" as="sourcePoint" />
            <mxPoint x="569.7100000000003" y="390" as="targetPoint" />
          </mxGeometry>
        </mxCell>
        <mxCell id="SCijopppJ_x_7-YpdCK1-112" value="" style="endArrow=none;html=1;" edge="1" parent="1">
          <mxGeometry width="50" height="50" relative="1" as="geometry">
            <mxPoint x="529.7100000000003" y="710" as="sourcePoint" />
            <mxPoint x="529.7100000000003" y="390" as="targetPoint" />
          </mxGeometry>
        </mxCell>
        <mxCell id="SCijopppJ_x_7-YpdCK1-113" value="" style="endArrow=none;html=1;" edge="1" parent="1">
          <mxGeometry width="50" height="50" relative="1" as="geometry">
            <mxPoint x="489.71000000000026" y="710" as="sourcePoint" />
            <mxPoint x="489.71000000000026" y="390" as="targetPoint" />
          </mxGeometry>
        </mxCell>
        <mxCell id="SCijopppJ_x_7-YpdCK1-114" value="" style="endArrow=none;html=1;" edge="1" parent="1">
          <mxGeometry width="50" height="50" relative="1" as="geometry">
            <mxPoint x="449.71000000000026" y="710" as="sourcePoint" />
            <mxPoint x="449.71000000000026" y="390" as="targetPoint" />
          </mxGeometry>
        </mxCell>
        <mxCell id="SCijopppJ_x_7-YpdCK1-115" value="" style="endArrow=none;html=1;" edge="1" parent="1">
          <mxGeometry width="50" height="50" relative="1" as="geometry">
            <mxPoint x="409.71000000000026" y="710" as="sourcePoint" />
            <mxPoint x="409.71000000000026" y="390" as="targetPoint" />
          </mxGeometry>
        </mxCell>
        <mxCell id="SCijopppJ_x_7-YpdCK1-116" value="" style="endArrow=none;html=1;" edge="1" parent="1">
          <mxGeometry width="50" height="50" relative="1" as="geometry">
            <mxPoint x="369.71000000000026" y="710" as="sourcePoint" />
            <mxPoint x="369.71000000000026" y="390" as="targetPoint" />
          </mxGeometry>
        </mxCell>
        <mxCell id="SCijopppJ_x_7-YpdCK1-117" value="" style="endArrow=none;html=1;" edge="1" parent="1">
          <mxGeometry width="50" height="50" relative="1" as="geometry">
            <mxPoint x="329.71000000000026" y="710" as="sourcePoint" />
            <mxPoint x="329.71000000000026" y="390" as="targetPoint" />
          </mxGeometry>
        </mxCell>
        <mxCell id="SCijopppJ_x_7-YpdCK1-118" value="" style="endArrow=none;html=1;" edge="1" parent="1">
          <mxGeometry width="50" height="50" relative="1" as="geometry">
            <mxPoint x="289.71000000000026" y="710" as="sourcePoint" />
            <mxPoint x="289.71000000000026" y="390" as="targetPoint" />
          </mxGeometry>
        </mxCell>
        <mxCell id="SCijopppJ_x_7-YpdCK1-119" value="" style="endArrow=none;html=1;" edge="1" parent="1">
          <mxGeometry width="50" height="50" relative="1" as="geometry">
            <mxPoint x="249.71000000000026" y="710" as="sourcePoint" />
            <mxPoint x="249.71000000000026" y="390" as="targetPoint" />
          </mxGeometry>
        </mxCell>
        <mxCell id="SCijopppJ_x_7-YpdCK1-110" value="" style="endArrow=none;html=1;" edge="1" parent="1">
          <mxGeometry width="50" height="50" relative="1" as="geometry">
            <mxPoint x="609.71" y="710" as="sourcePoint" />
            <mxPoint x="609.71" y="390" as="targetPoint" />
          </mxGeometry>
        </mxCell>
        <mxCell id="SCijopppJ_x_7-YpdCK1-102" value="" style="endArrow=none;html=1;" edge="1" parent="1">
          <mxGeometry width="50" height="50" relative="1" as="geometry">
            <mxPoint x="250" y="429.71" as="sourcePoint" />
            <mxPoint x="600" y="429.71" as="targetPoint" />
          </mxGeometry>
        </mxCell>
        <mxCell id="SCijopppJ_x_7-YpdCK1-103" value="" style="endArrow=none;html=1;" edge="1" parent="1">
          <mxGeometry width="50" height="50" relative="1" as="geometry">
            <mxPoint x="260" y="469.71" as="sourcePoint" />
            <mxPoint x="610" y="469.71" as="targetPoint" />
          </mxGeometry>
        </mxCell>
        <mxCell id="SCijopppJ_x_7-YpdCK1-104" value="" style="endArrow=none;html=1;" edge="1" parent="1">
          <mxGeometry width="50" height="50" relative="1" as="geometry">
            <mxPoint x="260" y="509.71" as="sourcePoint" />
            <mxPoint x="610" y="509.71" as="targetPoint" />
          </mxGeometry>
        </mxCell>
        <mxCell id="SCijopppJ_x_7-YpdCK1-105" value="" style="endArrow=none;html=1;" edge="1" parent="1">
          <mxGeometry width="50" height="50" relative="1" as="geometry">
            <mxPoint x="260" y="549.71" as="sourcePoint" />
            <mxPoint x="610" y="549.71" as="targetPoint" />
          </mxGeometry>
        </mxCell>
        <mxCell id="SCijopppJ_x_7-YpdCK1-106" value="" style="endArrow=none;html=1;" edge="1" parent="1">
          <mxGeometry width="50" height="50" relative="1" as="geometry">
            <mxPoint x="260" y="589.71" as="sourcePoint" />
            <mxPoint x="610" y="589.71" as="targetPoint" />
          </mxGeometry>
        </mxCell>
        <mxCell id="SCijopppJ_x_7-YpdCK1-107" value="" style="endArrow=none;html=1;" edge="1" parent="1">
          <mxGeometry width="50" height="50" relative="1" as="geometry">
            <mxPoint x="260" y="629.71" as="sourcePoint" />
            <mxPoint x="610" y="629.71" as="targetPoint" />
          </mxGeometry>
        </mxCell>
        <mxCell id="SCijopppJ_x_7-YpdCK1-108" value="" style="endArrow=none;html=1;" edge="1" parent="1">
          <mxGeometry width="50" height="50" relative="1" as="geometry">
            <mxPoint x="250" y="669.71" as="sourcePoint" />
            <mxPoint x="600" y="669.71" as="targetPoint" />
          </mxGeometry>
        </mxCell>
        <mxCell id="SCijopppJ_x_7-YpdCK1-109" value="" style="endArrow=none;html=1;" edge="1" parent="1">
          <mxGeometry width="50" height="50" relative="1" as="geometry">
            <mxPoint x="260" y="709.71" as="sourcePoint" />
            <mxPoint x="610" y="709.71" as="targetPoint" />
          </mxGeometry>
        </mxCell>
        <mxCell id="SCijopppJ_x_7-YpdCK1-101" value="" style="endArrow=none;html=1;" edge="1" parent="1" source="SCijopppJ_x_7-YpdCK1-7">
          <mxGeometry width="50" height="50" relative="1" as="geometry">
            <mxPoint x="450" y="389.71" as="sourcePoint" />
            <mxPoint x="610" y="390" as="targetPoint" />
          </mxGeometry>
        </mxCell>
        <mxCell id="SCijopppJ_x_7-YpdCK1-7" value="" style="whiteSpace=wrap;html=1;aspect=fixed;" vertex="1" parent="1">
          <mxGeometry x="240" y="380" width="20" height="20" as="geometry" />
        </mxCell>
        <mxCell id="SCijopppJ_x_7-YpdCK1-8" value="" style="whiteSpace=wrap;html=1;aspect=fixed;" vertex="1" parent="1">
          <mxGeometry x="240" y="420" width="20" height="20" as="geometry" />
        </mxCell>
        <mxCell id="SCijopppJ_x_7-YpdCK1-9" value="" style="whiteSpace=wrap;html=1;aspect=fixed;" vertex="1" parent="1">
          <mxGeometry x="240" y="460" width="20" height="20" as="geometry" />
        </mxCell>
        <mxCell id="SCijopppJ_x_7-YpdCK1-10" value="" style="whiteSpace=wrap;html=1;aspect=fixed;" vertex="1" parent="1">
          <mxGeometry x="240" y="500" width="20" height="20" as="geometry" />
        </mxCell>
        <mxCell id="SCijopppJ_x_7-YpdCK1-11" value="" style="whiteSpace=wrap;html=1;aspect=fixed;" vertex="1" parent="1">
          <mxGeometry x="240" y="540" width="20" height="20" as="geometry" />
        </mxCell>
        <mxCell id="SCijopppJ_x_7-YpdCK1-12" value="" style="whiteSpace=wrap;html=1;aspect=fixed;" vertex="1" parent="1">
          <mxGeometry x="240" y="580" width="20" height="20" as="geometry" />
        </mxCell>
        <mxCell id="SCijopppJ_x_7-YpdCK1-13" value="" style="whiteSpace=wrap;html=1;aspect=fixed;" vertex="1" parent="1">
          <mxGeometry x="240" y="620" width="20" height="20" as="geometry" />
        </mxCell>
        <mxCell id="SCijopppJ_x_7-YpdCK1-14" value="" style="whiteSpace=wrap;html=1;aspect=fixed;" vertex="1" parent="1">
          <mxGeometry x="240" y="660" width="20" height="20" as="geometry" />
        </mxCell>
        <mxCell id="SCijopppJ_x_7-YpdCK1-15" value="" style="whiteSpace=wrap;html=1;aspect=fixed;" vertex="1" parent="1">
          <mxGeometry x="240" y="700" width="20" height="20" as="geometry" />
        </mxCell>
        <mxCell id="SCijopppJ_x_7-YpdCK1-16" value="" style="whiteSpace=wrap;html=1;aspect=fixed;" vertex="1" parent="1">
          <mxGeometry x="280" y="380" width="20" height="20" as="geometry" />
        </mxCell>
        <mxCell id="SCijopppJ_x_7-YpdCK1-17" value="" style="whiteSpace=wrap;html=1;aspect=fixed;" vertex="1" parent="1">
          <mxGeometry x="280" y="420" width="20" height="20" as="geometry" />
        </mxCell>
        <mxCell id="SCijopppJ_x_7-YpdCK1-18" value="" style="whiteSpace=wrap;html=1;aspect=fixed;" vertex="1" parent="1">
          <mxGeometry x="280" y="460" width="20" height="20" as="geometry" />
        </mxCell>
        <mxCell id="SCijopppJ_x_7-YpdCK1-19" value="" style="whiteSpace=wrap;html=1;aspect=fixed;" vertex="1" parent="1">
          <mxGeometry x="280" y="500" width="20" height="20" as="geometry" />
        </mxCell>
        <mxCell id="SCijopppJ_x_7-YpdCK1-20" value="" style="whiteSpace=wrap;html=1;aspect=fixed;" vertex="1" parent="1">
          <mxGeometry x="280" y="540" width="20" height="20" as="geometry" />
        </mxCell>
        <mxCell id="SCijopppJ_x_7-YpdCK1-21" value="" style="whiteSpace=wrap;html=1;aspect=fixed;" vertex="1" parent="1">
          <mxGeometry x="280" y="580" width="20" height="20" as="geometry" />
        </mxCell>
        <mxCell id="SCijopppJ_x_7-YpdCK1-22" value="" style="whiteSpace=wrap;html=1;aspect=fixed;" vertex="1" parent="1">
          <mxGeometry x="280" y="620" width="20" height="20" as="geometry" />
        </mxCell>
        <mxCell id="SCijopppJ_x_7-YpdCK1-23" value="" style="whiteSpace=wrap;html=1;aspect=fixed;" vertex="1" parent="1">
          <mxGeometry x="280" y="660" width="20" height="20" as="geometry" />
        </mxCell>
        <mxCell id="SCijopppJ_x_7-YpdCK1-24" value="" style="whiteSpace=wrap;html=1;aspect=fixed;" vertex="1" parent="1">
          <mxGeometry x="280" y="700" width="20" height="20" as="geometry" />
        </mxCell>
        <mxCell id="SCijopppJ_x_7-YpdCK1-25" value="" style="whiteSpace=wrap;html=1;aspect=fixed;" vertex="1" parent="1">
          <mxGeometry x="320" y="380" width="20" height="20" as="geometry" />
        </mxCell>
        <mxCell id="SCijopppJ_x_7-YpdCK1-26" value="" style="whiteSpace=wrap;html=1;aspect=fixed;" vertex="1" parent="1">
          <mxGeometry x="320" y="420" width="20" height="20" as="geometry" />
        </mxCell>
        <mxCell id="SCijopppJ_x_7-YpdCK1-27" value="" style="whiteSpace=wrap;html=1;aspect=fixed;" vertex="1" parent="1">
          <mxGeometry x="320" y="460" width="20" height="20" as="geometry" />
        </mxCell>
        <mxCell id="SCijopppJ_x_7-YpdCK1-28" value="" style="whiteSpace=wrap;html=1;aspect=fixed;" vertex="1" parent="1">
          <mxGeometry x="320" y="500" width="20" height="20" as="geometry" />
        </mxCell>
        <mxCell id="SCijopppJ_x_7-YpdCK1-29" value="" style="whiteSpace=wrap;html=1;aspect=fixed;" vertex="1" parent="1">
          <mxGeometry x="320" y="540" width="20" height="20" as="geometry" />
        </mxCell>
        <mxCell id="SCijopppJ_x_7-YpdCK1-30" value="" style="whiteSpace=wrap;html=1;aspect=fixed;" vertex="1" parent="1">
          <mxGeometry x="320" y="580" width="20" height="20" as="geometry" />
        </mxCell>
        <mxCell id="SCijopppJ_x_7-YpdCK1-31" value="" style="whiteSpace=wrap;html=1;aspect=fixed;" vertex="1" parent="1">
          <mxGeometry x="320" y="620" width="20" height="20" as="geometry" />
        </mxCell>
        <mxCell id="SCijopppJ_x_7-YpdCK1-32" value="" style="whiteSpace=wrap;html=1;aspect=fixed;" vertex="1" parent="1">
          <mxGeometry x="320" y="660" width="20" height="20" as="geometry" />
        </mxCell>
        <mxCell id="SCijopppJ_x_7-YpdCK1-33" value="" style="whiteSpace=wrap;html=1;aspect=fixed;" vertex="1" parent="1">
          <mxGeometry x="320" y="700" width="20" height="20" as="geometry" />
        </mxCell>
        <mxCell id="SCijopppJ_x_7-YpdCK1-34" value="" style="whiteSpace=wrap;html=1;aspect=fixed;fillColor=#666666;" vertex="1" parent="1">
          <mxGeometry x="360" y="380" width="20" height="20" as="geometry" />
        </mxCell>
        <mxCell id="SCijopppJ_x_7-YpdCK1-35" value="" style="whiteSpace=wrap;html=1;aspect=fixed;fillColor=#666666;" vertex="1" parent="1">
          <mxGeometry x="360" y="420" width="20" height="20" as="geometry" />
        </mxCell>
        <mxCell id="SCijopppJ_x_7-YpdCK1-36" value="" style="whiteSpace=wrap;html=1;aspect=fixed;fillColor=#666666;" vertex="1" parent="1">
          <mxGeometry x="360" y="460" width="20" height="20" as="geometry" />
        </mxCell>
        <mxCell id="SCijopppJ_x_7-YpdCK1-37" value="" style="whiteSpace=wrap;html=1;aspect=fixed;fillColor=#666666;" vertex="1" parent="1">
          <mxGeometry x="360" y="500" width="20" height="20" as="geometry" />
        </mxCell>
        <mxCell id="SCijopppJ_x_7-YpdCK1-38" value="" style="whiteSpace=wrap;html=1;aspect=fixed;fillColor=#666666;" vertex="1" parent="1">
          <mxGeometry x="360" y="540" width="20" height="20" as="geometry" />
        </mxCell>
        <mxCell id="SCijopppJ_x_7-YpdCK1-39" value="" style="whiteSpace=wrap;html=1;aspect=fixed;fillColor=#666666;" vertex="1" parent="1">
          <mxGeometry x="360" y="580" width="20" height="20" as="geometry" />
        </mxCell>
        <mxCell id="SCijopppJ_x_7-YpdCK1-40" value="" style="whiteSpace=wrap;html=1;aspect=fixed;fillColor=#666666;" vertex="1" parent="1">
          <mxGeometry x="360" y="620" width="20" height="20" as="geometry" />
        </mxCell>
        <mxCell id="SCijopppJ_x_7-YpdCK1-41" value="" style="whiteSpace=wrap;html=1;aspect=fixed;fillColor=#666666;" vertex="1" parent="1">
          <mxGeometry x="360" y="660" width="20" height="20" as="geometry" />
        </mxCell>
        <mxCell id="SCijopppJ_x_7-YpdCK1-42" value="" style="whiteSpace=wrap;html=1;aspect=fixed;fillColor=#666666;" vertex="1" parent="1">
          <mxGeometry x="360" y="700" width="20" height="20" as="geometry" />
        </mxCell>
        <mxCell id="SCijopppJ_x_7-YpdCK1-43" value="" style="whiteSpace=wrap;html=1;aspect=fixed;fillColor=#666666;" vertex="1" parent="1">
          <mxGeometry x="400" y="380" width="20" height="20" as="geometry" />
        </mxCell>
        <mxCell id="SCijopppJ_x_7-YpdCK1-44" value="" style="whiteSpace=wrap;html=1;aspect=fixed;fillColor=#666666;" vertex="1" parent="1">
          <mxGeometry x="400" y="420" width="20" height="20" as="geometry" />
        </mxCell>
        <mxCell id="SCijopppJ_x_7-YpdCK1-45" value="" style="whiteSpace=wrap;html=1;aspect=fixed;fillColor=#666666;" vertex="1" parent="1">
          <mxGeometry x="400" y="460" width="20" height="20" as="geometry" />
        </mxCell>
        <mxCell id="SCijopppJ_x_7-YpdCK1-46" value="" style="whiteSpace=wrap;html=1;aspect=fixed;fillColor=#666666;" vertex="1" parent="1">
          <mxGeometry x="400" y="500" width="20" height="20" as="geometry" />
        </mxCell>
        <mxCell id="SCijopppJ_x_7-YpdCK1-47" value="" style="whiteSpace=wrap;html=1;aspect=fixed;fillColor=#666666;" vertex="1" parent="1">
          <mxGeometry x="400" y="540" width="20" height="20" as="geometry" />
        </mxCell>
        <mxCell id="SCijopppJ_x_7-YpdCK1-48" value="" style="whiteSpace=wrap;html=1;aspect=fixed;fillColor=#666666;" vertex="1" parent="1">
          <mxGeometry x="400" y="580" width="20" height="20" as="geometry" />
        </mxCell>
        <mxCell id="SCijopppJ_x_7-YpdCK1-49" value="" style="whiteSpace=wrap;html=1;aspect=fixed;fillColor=#666666;" vertex="1" parent="1">
          <mxGeometry x="400" y="620" width="20" height="20" as="geometry" />
        </mxCell>
        <mxCell id="SCijopppJ_x_7-YpdCK1-50" value="" style="whiteSpace=wrap;html=1;aspect=fixed;fillColor=#666666;" vertex="1" parent="1">
          <mxGeometry x="400" y="660" width="20" height="20" as="geometry" />
        </mxCell>
        <mxCell id="SCijopppJ_x_7-YpdCK1-51" value="" style="whiteSpace=wrap;html=1;aspect=fixed;fillColor=#666666;" vertex="1" parent="1">
          <mxGeometry x="400" y="700" width="20" height="20" as="geometry" />
        </mxCell>
        <mxCell id="SCijopppJ_x_7-YpdCK1-52" value="" style="whiteSpace=wrap;html=1;aspect=fixed;fillColor=#666666;" vertex="1" parent="1">
          <mxGeometry x="440" y="380" width="20" height="20" as="geometry" />
        </mxCell>
        <mxCell id="SCijopppJ_x_7-YpdCK1-53" value="" style="whiteSpace=wrap;html=1;aspect=fixed;fillColor=#666666;" vertex="1" parent="1">
          <mxGeometry x="440" y="420" width="20" height="20" as="geometry" />
        </mxCell>
        <mxCell id="SCijopppJ_x_7-YpdCK1-54" value="" style="whiteSpace=wrap;html=1;aspect=fixed;fillColor=#666666;" vertex="1" parent="1">
          <mxGeometry x="440" y="460" width="20" height="20" as="geometry" />
        </mxCell>
        <mxCell id="SCijopppJ_x_7-YpdCK1-55" value="" style="whiteSpace=wrap;html=1;aspect=fixed;fillColor=#666666;" vertex="1" parent="1">
          <mxGeometry x="440" y="500" width="20" height="20" as="geometry" />
        </mxCell>
        <mxCell id="SCijopppJ_x_7-YpdCK1-56" value="" style="whiteSpace=wrap;html=1;aspect=fixed;fillColor=#666666;" vertex="1" parent="1">
          <mxGeometry x="440" y="540" width="20" height="20" as="geometry" />
        </mxCell>
        <mxCell id="SCijopppJ_x_7-YpdCK1-57" value="" style="whiteSpace=wrap;html=1;aspect=fixed;fillColor=#666666;" vertex="1" parent="1">
          <mxGeometry x="440" y="580" width="20" height="20" as="geometry" />
        </mxCell>
        <mxCell id="SCijopppJ_x_7-YpdCK1-58" value="" style="whiteSpace=wrap;html=1;aspect=fixed;fillColor=#666666;" vertex="1" parent="1">
          <mxGeometry x="440" y="620" width="20" height="20" as="geometry" />
        </mxCell>
        <mxCell id="SCijopppJ_x_7-YpdCK1-59" value="" style="whiteSpace=wrap;html=1;aspect=fixed;fillColor=#666666;" vertex="1" parent="1">
          <mxGeometry x="440" y="660" width="20" height="20" as="geometry" />
        </mxCell>
        <mxCell id="SCijopppJ_x_7-YpdCK1-60" value="" style="whiteSpace=wrap;html=1;aspect=fixed;fillColor=#666666;" vertex="1" parent="1">
          <mxGeometry x="440" y="700" width="20" height="20" as="geometry" />
        </mxCell>
        <mxCell id="SCijopppJ_x_7-YpdCK1-61" value="" style="whiteSpace=wrap;html=1;aspect=fixed;fillColor=#666666;" vertex="1" parent="1">
          <mxGeometry x="480" y="380" width="20" height="20" as="geometry" />
        </mxCell>
        <mxCell id="SCijopppJ_x_7-YpdCK1-62" value="" style="whiteSpace=wrap;html=1;aspect=fixed;fillColor=#666666;" vertex="1" parent="1">
          <mxGeometry x="480" y="420" width="20" height="20" as="geometry" />
        </mxCell>
        <mxCell id="SCijopppJ_x_7-YpdCK1-63" value="" style="whiteSpace=wrap;html=1;aspect=fixed;fillColor=#666666;" vertex="1" parent="1">
          <mxGeometry x="480" y="460" width="20" height="20" as="geometry" />
        </mxCell>
        <mxCell id="SCijopppJ_x_7-YpdCK1-64" value="" style="whiteSpace=wrap;html=1;aspect=fixed;fillColor=#666666;" vertex="1" parent="1">
          <mxGeometry x="480" y="500" width="20" height="20" as="geometry" />
        </mxCell>
        <mxCell id="SCijopppJ_x_7-YpdCK1-65" value="" style="whiteSpace=wrap;html=1;aspect=fixed;fillColor=#666666;" vertex="1" parent="1">
          <mxGeometry x="480" y="540" width="20" height="20" as="geometry" />
        </mxCell>
        <mxCell id="SCijopppJ_x_7-YpdCK1-66" value="" style="whiteSpace=wrap;html=1;aspect=fixed;fillColor=#666666;" vertex="1" parent="1">
          <mxGeometry x="480" y="580" width="20" height="20" as="geometry" />
        </mxCell>
        <mxCell id="SCijopppJ_x_7-YpdCK1-67" value="" style="whiteSpace=wrap;html=1;aspect=fixed;fillColor=#666666;" vertex="1" parent="1">
          <mxGeometry x="480" y="620" width="20" height="20" as="geometry" />
        </mxCell>
        <mxCell id="SCijopppJ_x_7-YpdCK1-68" value="" style="whiteSpace=wrap;html=1;aspect=fixed;fillColor=#666666;" vertex="1" parent="1">
          <mxGeometry x="480" y="660" width="20" height="20" as="geometry" />
        </mxCell>
        <mxCell id="SCijopppJ_x_7-YpdCK1-69" value="" style="whiteSpace=wrap;html=1;aspect=fixed;fillColor=#666666;" vertex="1" parent="1">
          <mxGeometry x="480" y="700" width="20" height="20" as="geometry" />
        </mxCell>
        <mxCell id="SCijopppJ_x_7-YpdCK1-70" value="" style="whiteSpace=wrap;html=1;aspect=fixed;" vertex="1" parent="1">
          <mxGeometry x="520" y="380" width="20" height="20" as="geometry" />
        </mxCell>
        <mxCell id="SCijopppJ_x_7-YpdCK1-71" value="" style="whiteSpace=wrap;html=1;aspect=fixed;" vertex="1" parent="1">
          <mxGeometry x="520" y="420" width="20" height="20" as="geometry" />
        </mxCell>
        <mxCell id="SCijopppJ_x_7-YpdCK1-72" value="" style="whiteSpace=wrap;html=1;aspect=fixed;" vertex="1" parent="1">
          <mxGeometry x="520" y="460" width="20" height="20" as="geometry" />
        </mxCell>
        <mxCell id="SCijopppJ_x_7-YpdCK1-73" value="" style="whiteSpace=wrap;html=1;aspect=fixed;" vertex="1" parent="1">
          <mxGeometry x="520" y="500" width="20" height="20" as="geometry" />
        </mxCell>
        <mxCell id="SCijopppJ_x_7-YpdCK1-74" value="" style="whiteSpace=wrap;html=1;aspect=fixed;" vertex="1" parent="1">
          <mxGeometry x="520" y="540" width="20" height="20" as="geometry" />
        </mxCell>
        <mxCell id="SCijopppJ_x_7-YpdCK1-75" value="" style="whiteSpace=wrap;html=1;aspect=fixed;" vertex="1" parent="1">
          <mxGeometry x="520" y="580" width="20" height="20" as="geometry" />
        </mxCell>
        <mxCell id="SCijopppJ_x_7-YpdCK1-76" value="" style="whiteSpace=wrap;html=1;aspect=fixed;" vertex="1" parent="1">
          <mxGeometry x="520" y="620" width="20" height="20" as="geometry" />
        </mxCell>
        <mxCell id="SCijopppJ_x_7-YpdCK1-77" value="" style="whiteSpace=wrap;html=1;aspect=fixed;" vertex="1" parent="1">
          <mxGeometry x="520" y="660" width="20" height="20" as="geometry" />
        </mxCell>
        <mxCell id="SCijopppJ_x_7-YpdCK1-78" value="" style="whiteSpace=wrap;html=1;aspect=fixed;" vertex="1" parent="1">
          <mxGeometry x="520" y="700" width="20" height="20" as="geometry" />
        </mxCell>
        <mxCell id="SCijopppJ_x_7-YpdCK1-79" value="" style="whiteSpace=wrap;html=1;aspect=fixed;" vertex="1" parent="1">
          <mxGeometry x="560" y="380" width="20" height="20" as="geometry" />
        </mxCell>
        <mxCell id="SCijopppJ_x_7-YpdCK1-80" value="" style="whiteSpace=wrap;html=1;aspect=fixed;" vertex="1" parent="1">
          <mxGeometry x="560" y="420" width="20" height="20" as="geometry" />
        </mxCell>
        <mxCell id="SCijopppJ_x_7-YpdCK1-81" value="" style="whiteSpace=wrap;html=1;aspect=fixed;" vertex="1" parent="1">
          <mxGeometry x="560" y="460" width="20" height="20" as="geometry" />
        </mxCell>
        <mxCell id="SCijopppJ_x_7-YpdCK1-82" value="" style="whiteSpace=wrap;html=1;aspect=fixed;" vertex="1" parent="1">
          <mxGeometry x="560" y="500" width="20" height="20" as="geometry" />
        </mxCell>
        <mxCell id="SCijopppJ_x_7-YpdCK1-83" value="" style="whiteSpace=wrap;html=1;aspect=fixed;" vertex="1" parent="1">
          <mxGeometry x="560" y="540" width="20" height="20" as="geometry" />
        </mxCell>
        <mxCell id="SCijopppJ_x_7-YpdCK1-84" value="" style="whiteSpace=wrap;html=1;aspect=fixed;" vertex="1" parent="1">
          <mxGeometry x="560" y="580" width="20" height="20" as="geometry" />
        </mxCell>
        <mxCell id="SCijopppJ_x_7-YpdCK1-85" value="" style="whiteSpace=wrap;html=1;aspect=fixed;" vertex="1" parent="1">
          <mxGeometry x="560" y="620" width="20" height="20" as="geometry" />
        </mxCell>
        <mxCell id="SCijopppJ_x_7-YpdCK1-86" value="" style="whiteSpace=wrap;html=1;aspect=fixed;" vertex="1" parent="1">
          <mxGeometry x="560" y="660" width="20" height="20" as="geometry" />
        </mxCell>
        <mxCell id="SCijopppJ_x_7-YpdCK1-87" value="" style="whiteSpace=wrap;html=1;aspect=fixed;" vertex="1" parent="1">
          <mxGeometry x="560" y="700" width="20" height="20" as="geometry" />
        </mxCell>
        <mxCell id="SCijopppJ_x_7-YpdCK1-88" value="" style="whiteSpace=wrap;html=1;aspect=fixed;" vertex="1" parent="1">
          <mxGeometry x="600" y="380" width="20" height="20" as="geometry" />
        </mxCell>
        <mxCell id="SCijopppJ_x_7-YpdCK1-89" value="" style="whiteSpace=wrap;html=1;aspect=fixed;" vertex="1" parent="1">
          <mxGeometry x="600" y="420" width="20" height="20" as="geometry" />
        </mxCell>
        <mxCell id="SCijopppJ_x_7-YpdCK1-90" value="" style="whiteSpace=wrap;html=1;aspect=fixed;" vertex="1" parent="1">
          <mxGeometry x="600" y="460" width="20" height="20" as="geometry" />
        </mxCell>
        <mxCell id="SCijopppJ_x_7-YpdCK1-91" value="" style="whiteSpace=wrap;html=1;aspect=fixed;" vertex="1" parent="1">
          <mxGeometry x="600" y="500" width="20" height="20" as="geometry" />
        </mxCell>
        <mxCell id="SCijopppJ_x_7-YpdCK1-92" value="" style="whiteSpace=wrap;html=1;aspect=fixed;" vertex="1" parent="1">
          <mxGeometry x="600" y="540" width="20" height="20" as="geometry" />
        </mxCell>
        <mxCell id="SCijopppJ_x_7-YpdCK1-93" value="" style="whiteSpace=wrap;html=1;aspect=fixed;" vertex="1" parent="1">
          <mxGeometry x="600" y="580" width="20" height="20" as="geometry" />
        </mxCell>
        <mxCell id="SCijopppJ_x_7-YpdCK1-94" value="" style="whiteSpace=wrap;html=1;aspect=fixed;" vertex="1" parent="1">
          <mxGeometry x="600" y="620" width="20" height="20" as="geometry" />
        </mxCell>
        <mxCell id="SCijopppJ_x_7-YpdCK1-95" value="" style="whiteSpace=wrap;html=1;aspect=fixed;" vertex="1" parent="1">
          <mxGeometry x="600" y="660" width="20" height="20" as="geometry" />
        </mxCell>
        <mxCell id="SCijopppJ_x_7-YpdCK1-96" value="" style="whiteSpace=wrap;html=1;aspect=fixed;" vertex="1" parent="1">
          <mxGeometry x="600" y="700" width="20" height="20" as="geometry" />
        </mxCell>
        <mxCell id="SCijopppJ_x_7-YpdCK1-97" value="" style="endArrow=classic;html=1;" edge="1" parent="1">
          <mxGeometry width="50" height="50" relative="1" as="geometry">
            <mxPoint x="220" y="360" as="sourcePoint" />
            <mxPoint x="640" y="360" as="targetPoint" />
          </mxGeometry>
        </mxCell>
        <mxCell id="SCijopppJ_x_7-YpdCK1-98" value="" style="endArrow=classic;html=1;" edge="1" parent="1">
          <mxGeometry width="50" height="50" relative="1" as="geometry">
            <mxPoint x="220" y="360" as="sourcePoint" />
            <mxPoint x="220" y="740" as="targetPoint" />
          </mxGeometry>
        </mxCell>
        <mxCell id="SCijopppJ_x_7-YpdCK1-99" value="&lt;div&gt;N&lt;/div&gt;" style="text;html=1;strokeColor=none;fillColor=none;align=center;verticalAlign=middle;whiteSpace=wrap;rounded=0;" vertex="1" parent="1">
          <mxGeometry x="640" y="350" width="40" height="20" as="geometry" />
        </mxCell>
        <mxCell id="SCijopppJ_x_7-YpdCK1-100" value="L" style="text;html=1;strokeColor=none;fillColor=none;align=center;verticalAlign=middle;whiteSpace=wrap;rounded=0;" vertex="1" parent="1">
          <mxGeometry x="200" y="740" width="40" height="20" as="geometry" />
        </mxCell>
        <mxCell id="SCijopppJ_x_7-YpdCK1-120" value="" style="whiteSpace=wrap;html=1;aspect=fixed;fillColor=#666666;" vertex="1" parent="1">
          <mxGeometry x="220" y="290" width="20" height="20" as="geometry" />
        </mxCell>
        <mxCell id="SCijopppJ_x_7-YpdCK1-121" value="" style="whiteSpace=wrap;html=1;aspect=fixed;" vertex="1" parent="1">
          <mxGeometry x="220" y="320" width="20" height="20" as="geometry" />
        </mxCell>
        <mxCell id="SCijopppJ_x_7-YpdCK1-122" value="Scattering Region" style="text;html=1;strokeColor=none;fillColor=none;align=center;verticalAlign=middle;whiteSpace=wrap;rounded=0;" vertex="1" parent="1">
          <mxGeometry x="250" y="290" width="110" height="20" as="geometry" />
        </mxCell>
        <mxCell id="SCijopppJ_x_7-YpdCK1-123" value="&lt;div&gt;Leads (No Scattering)&lt;/div&gt;" style="text;html=1;strokeColor=none;fillColor=none;align=center;verticalAlign=middle;whiteSpace=wrap;rounded=0;" vertex="1" parent="1">
          <mxGeometry x="248" y="320" width="140" height="20" as="geometry" />
        </mxCell>
        <mxCell id="SCijopppJ_x_7-YpdCK1-124" value="" style="rounded=0;whiteSpace=wrap;html=1;fillColor=#666666;" vertex="1" parent="1">
          <mxGeometry x="365" y="800" width="120" height="60" as="geometry" />
        </mxCell>
      </root>
    </mxGraphModel>
  </diagram>
</mxfile>
